<?xml version="1.0" standalone="no"?><!DOCTYPE svg PUBLIC "-//W3C//DTD SVG 1.1//EN" "http://www.w3.org/Graphics/SVG/1.1/DTD/svg11.dtd"><svg t="1598334863508" class="icon" viewBox="0 0 1024 1024" version="1.1" xmlns="http://www.w3.org/2000/svg" p-id="21729" width="32" height="32" xmlns:xlink="http://www.w3.org/1999/xlink"><defs><style type="text/css"></style></defs><path d="M510.2 510.8m-447.6 0a447.6 447.6 0 1 0 895.2 0 447.6 447.6 0 1 0-895.2 0Z" fill="#FC2B71" p-id="21730"></path><path d="M265.748 511.987c1.9-62 24.1-115.4 67-160.4 25.6-26.9 55.6-47.3 89.9-61.2 42.1-17.1 85.8-22.9 130.9-18.1 59.9 6.4 111.9 30.1 155.3 71.9 21.1 20.4 39 43.4 51.3 70.3 8.7 18.8 15.9 38.2 18.9 58.8 2 13.5 4.2 27 4.2 40.6 0 41.8-19.4 72.6-56.9 90.4-39.6 18.8-77.8 13.7-113.1-12-8.5-6.1-15.9-13.8-24.5-19.7-13.8-9.4-29.3-15.5-45.7-17.5-27.3-3.4-53.9-0.1-78 14.6-8.5 5.2-16.4 11.5-24 18-17.3 14.8-36.8 24.1-59.6 26.6-17.3 1.9-34.2 0.3-50.4-6-29.4-11.4-50.1-31.5-60.8-61.5-3.9-11.2-5.1-22.8-4.5-34.8" fill="#FFFFFF" p-id="21731"></path><path d="M622.648 672.948c0.2 54.5-43.3 98.2-97.8 98.5-54.4 0.2-98.6-43.5-98.8-97.6-0.2-54.5 43.7-98.7 98.1-98.8 54.4-0.1 98.4 43.6 98.5 97.9" fill="#FFFFFF" p-id="21732"></path></svg>