<?xml version="1.0" standalone="no"?><!DOCTYPE svg PUBLIC "-//W3C//DTD SVG 1.1//EN" "http://www.w3.org/Graphics/SVG/1.1/DTD/svg11.dtd"><svg t="1598334627407" class="icon" viewBox="0 0 1024 1024" version="1.1" xmlns="http://www.w3.org/2000/svg" p-id="2289" width="48" height="48" xmlns:xlink="http://www.w3.org/1999/xlink"><defs><style type="text/css"></style></defs><path d="M727.89 616c41.02 0 74.27-33.25 74.27-74.268V300.362c0-41.018-33.25-74.268-74.27-74.268H360.268c-41.016 0-74.268 33.25-74.268 74.268v73.08" fill="#DFECFD" p-id="2290"></path><path d="M727.89 646v-60c24.41 0 44.27-19.858 44.27-44.268V300.362c0-24.41-19.86-44.268-44.27-44.268H360.268c-24.41 0-44.268 19.858-44.268 44.268v73.08h-60v-73.08c0-57.494 46.774-104.268 104.268-104.268h367.624c57.494 0 104.27 46.774 104.27 104.268v241.37C832.16 599.226 785.384 646 727.89 646z" fill="#DFECFD" p-id="2291"></path><path d="M306.52 722H272c-27.614 0-50-22.386-50-50V412c0-27.614 22.386-50 50-50h396c27.614 0 50 22.386 50 50v260c0 27.614-22.386 50-50 50h-194.4l-83.538 83.54L306.52 722z" fill="#4988FD" p-id="2292"></path><path d="M390.062 835.54a29.896 29.896 0 0 1-21.212-8.788L294.094 752H272c-44.112 0-80-35.888-80-80V412c0-44.112 35.888-80 80-80h396c44.112 0 80 35.888 80 80v260c0 44.112-35.888 80-80 80h-181.974l-74.75 74.752a29.908 29.908 0 0 1-21.214 8.788zM272 392c-11.028 0-20 8.972-20 20v260c0 11.028 8.972 20 20 20h34.52c7.956 0 15.586 3.16 21.212 8.788l62.33 62.326 62.324-62.326A30 30 0 0 1 473.6 692H668c11.028 0 20-8.972 20-20V412c0-11.028-8.972-20-20-20H272z" fill="#4988FD" p-id="2293"></path><path d="M592 526H330c-16.568 0-30-13.432-30-30s13.432-30 30-30h262c16.568 0 30 13.432 30 30s-13.432 30-30 30zM482 638h-152c-16.568 0-30-13.432-30-30s13.432-30 30-30h152c16.568 0 30 13.432 30 30s-13.432 30-30 30z" fill="#FFFFFF" p-id="2294"></path></svg>