<?xml version="1.0" standalone="no"?><!DOCTYPE svg PUBLIC "-//W3C//DTD SVG 1.1//EN" "http://www.w3.org/Graphics/SVG/1.1/DTD/svg11.dtd"><svg t="1598334892194" class="icon" viewBox="0 0 1024 1024" version="1.1" xmlns="http://www.w3.org/2000/svg" p-id="23542" width="32" height="32" xmlns:xlink="http://www.w3.org/1999/xlink"><defs><style type="text/css"></style></defs><path d="M0 512A512 512 0 1 0 512 0 512 512 0 0 0 0 512z" fill="#9BB8F9" p-id="23543"></path><path d="M250.3168 437.2992A79.6672 79.6672 0 1 0 329.984 517.12a79.6672 79.6672 0 0 0-79.6672-79.8208z m253.44 0A79.6672 79.6672 0 1 0 583.3728 517.12a79.6672 79.6672 0 0 0-79.616-79.8208z m253.44 0A79.6672 79.6672 0 1 0 836.864 517.12a79.6672 79.6672 0 0 0-79.6672-79.8208z" fill="#FFFFFF" p-id="23544"></path></svg>