<?xml version="1.0" standalone="no"?><!DOCTYPE svg PUBLIC "-//W3C//DTD SVG 1.1//EN" "http://www.w3.org/Graphics/SVG/1.1/DTD/svg11.dtd"><svg t="1598334879287" class="icon" viewBox="0 0 1024 1024" version="1.1" xmlns="http://www.w3.org/2000/svg" p-id="22621" width="32" height="32" xmlns:xlink="http://www.w3.org/1999/xlink"><defs><style type="text/css"></style></defs><path d="M402.320184 1012.88378a65.389527 65.389527 0 0 1-32.040869-41.195402 192.245211 192.245211 0 0 0-65.389527-109.854406 196.168582 196.168582 0 0 0-124.893997 0 65.389527 65.389527 0 0 1-52.311622-6.538953 61.466156 61.466156 0 0 1-18.962963-17.001277L35.484935 710.130268a60.812261 60.812261 0 0 1 18.962963-73.890166 152.357599 152.357599 0 0 0 35.96424-38.579821 134.702427 134.702427 0 0 0-49.042146-183.744572H37.446621a51.003831 51.003831 0 0 1-14.385696-65.389528 653.895275 653.895275 0 0 1 40.541507-96.122605 653.895275 653.895275 0 0 1 60.158365-82.390805 50.349936 50.349936 0 0 1 65.389527-18.962963h3.923372a134.702427 134.702427 0 0 0 183.744572-49.042145 152.357599 152.357599 0 0 0 13.077906-45.772669 60.812261 60.812261 0 0 1 54.927203-56.234994h153.011494a65.389527 65.389527 0 0 1 23.54023 7.846743 65.389527 65.389527 0 0 1 32.040868 41.849298 191.591315 191.591315 0 0 0 65.389528 105.277139 190.93742 190.93742 0 0 0 120.970626 0 65.389527 65.389527 0 0 1 51.657726 7.192848 65.389527 65.389527 0 0 1 19.616859 24.848021l76.505747 126.855683a60.812261 60.812261 0 0 1-18.962963 73.890166 152.357599 152.357599 0 0 0-35.96424 38.579821 134.702427 134.702427 0 0 0 49.042145 183.744572h3.923372a50.349936 50.349936 0 0 1 15.039591 65.389528 653.895275 653.895275 0 0 1-41.195402 93.507024 653.895275 653.895275 0 0 1-60.158365 82.390805 50.349936 50.349936 0 0 1-65.389528 18.962962h-3.923372a134.702427 134.702427 0 0 0-183.744572 49.042146 152.357599 152.357599 0 0 0-15.693486 50.349936 60.812261 60.812261 0 0 1-54.927203 53.619413h-150.395913a61.466156 61.466156 0 0 1-23.54023-7.846744z" fill="#2CD0B8" p-id="22622"></path><path d="M510.212904 689.859515a179.167305 179.167305 0 1 1 179.167305-179.167306 179.821201 179.821201 0 0 1-179.167305 179.167306z m0-297.52235a118.355045 118.355045 0 1 0 118.355045 118.355044 118.355045 118.355045 0 0 0-118.355045-119.00894z" fill="#FFFFFF" p-id="22623"></path></svg>