<?xml version="1.0" standalone="no"?><!DOCTYPE svg PUBLIC "-//W3C//DTD SVG 1.1//EN" "http://www.w3.org/Graphics/SVG/1.1/DTD/svg11.dtd"><svg t="1598334843789" class="icon" viewBox="0 0 1024 1024" version="1.1" xmlns="http://www.w3.org/2000/svg" p-id="21331" width="32" height="32" xmlns:xlink="http://www.w3.org/1999/xlink"><defs><style type="text/css"></style></defs><path d="M396.7 277s495.5-20.1 541.2 0 18.6 177.1-29.3 313.6l-453.2 41.6L396.7 277z" fill="#FF6A88" p-id="21332"></path><path d="M239.8 512m-42.5 0a42.5 42.5 0 1 0 85 0 42.5 42.5 0 1 0-85 0Z" fill="#FEB2B2" p-id="21333"></path><path d="M146.7 340m-71.9 0a71.9 71.9 0 1 0 143.8 0 71.9 71.9 0 1 0-143.8 0Z" fill="#FEB2B2" p-id="21334"></path><path d="M522.7 781.8c-24.3 0-43.9 19.7-43.9 43.9 0 24.3 19.7 43.9 43.9 43.9 24.3 0 43.9-19.7 43.9-43.9s-19.7-43.9-43.9-43.9M864.9 782.1c-24.2 0-43.8 19.6-43.8 43.8 0 24.2 19.6 43.8 43.8 43.8 24.2 0 43.8-19.6 43.8-43.8 0-24.2-19.6-43.8-43.8-43.8M509.1 748.4c-31.7 0-59.6-25.1-63.5-57.2L402.4 387l-24.5-142c-2.2-17.1-17.3-31-33.8-31h-32.4c-8.5 0-15.5-6.9-15.5-15.4s6.9-15.5 15.5-15.5h32.4c32.2 0 60.4 25.2 64.3 57.3v0.3l24.5 141.6L476.3 687c2.1 16.8 16.8 30.5 32.8 30.5h413.4c8.5 0 15.5 6.9 15.5 15.4s-6.9 15.5-15.5 15.5H509.1z" fill="#FEB2B2" p-id="21335"></path><path d="M419.6 290.3c-10.5 0-19.1-6.9-19.1-15.5 0-8.5 8.6-15.4 19.1-15.4h125c8.5 0 15.5 6.9 15.5 15.5 0 8.5-6.9 15.5-15.5 15.5h-125zM474.6 646.6c-10 0-18.4-6.3-19-14.4-0.4-4.4 1.6-7.8 3.4-9.8 3.3-3.8 8.5-6.3 14.2-6.6l394.9-25.4c18.8-0.2 35.3-13.2 37.8-29.6l45.6-228c0.2-0.8 0.4-2 0.5-3.2 1.1-11.4-2.9-23.2-10.4-30.7-5.6-5.6-12.9-8.5-21-8.5H641c-8.5 0-15.5-6.9-15.5-15.5s6.9-15.5 15.5-15.5h279.4c19.6 0 37.6 7.1 50.6 19.9 14.5 14.3 21.3 34.6 18.6 55.6 0 0.3-0.1 0.7-0.2 1.1l-45.8 228.8v0.3c-4.3 30.9-37.4 56.1-73.9 56.1h-0.3l-393.3 25.4h-1.5zM715.3 904.1H290.8c-9.1 0-16.5-7.4-16.5-16.5s7.4-16.5 16.5-16.5h424.5c9.1 0 16.5 7.4 16.5 16.5 0 9-7.4 16.5-16.5 16.5zM980.7 904.1H797.8c-9.1 0-16.5-7.4-16.5-16.5s7.4-16.5 16.5-16.5h182.9c9.1 0 16.5 7.4 16.5 16.5 0 9-7.4 16.5-16.5 16.5z" fill="#FEB2B2" p-id="21336"></path></svg>