<?xml version="1.0" standalone="no"?><!DOCTYPE svg PUBLIC "-//W3C//DTD SVG 1.1//EN" "http://www.w3.org/Graphics/SVG/1.1/DTD/svg11.dtd"><svg t="1598334656299" class="icon" viewBox="0 0 1024 1024" version="1.1" xmlns="http://www.w3.org/2000/svg" p-id="6276" width="32" height="32" xmlns:xlink="http://www.w3.org/1999/xlink"><defs><style type="text/css"></style></defs><path d="M402.432 757.248A69.504 69.504 0 0 0 380.032 742.4a75.008 75.008 0 0 0-55.552 0 67.584 67.584 0 0 0-22.272 14.72 71.68 71.68 0 0 0-15.36 22.528 68.864 68.864 0 0 0 0 54.528 74.624 74.624 0 0 0 15.232 22.4 72.192 72.192 0 0 0 22.528 15.232 70.656 70.656 0 0 0 55.296 0 72.32 72.32 0 0 0 22.4-15.232 69.376 69.376 0 0 0 15.232-22.528 67.072 67.072 0 0 0 0-54.4 74.112 74.112 0 0 0-15.104-22.4zM743.168 758.912a68.48 68.48 0 0 0-22.784-14.72 74.112 74.112 0 0 0-55.168 0 66.816 66.816 0 0 0-22.4 14.72A73.6 73.6 0 0 0 627.2 781.44a67.84 67.84 0 0 0-5.632 27.136 68.992 68.992 0 0 0 5.632 27.392 73.216 73.216 0 0 0 38.4 37.632 68.864 68.864 0 0 0 27.264 5.632 71.68 71.68 0 0 0 27.648-5.632 70.4 70.4 0 0 0 22.784-15.232 71.68 71.68 0 0 0 15.36-22.528 67.968 67.968 0 0 0 5.632-27.264 68.864 68.864 0 0 0-5.888-27.776 74.624 74.624 0 0 0-15.232-21.888zM878.72 293.248a35.2 35.2 0 0 0-15.616-12.8 78.72 78.72 0 0 0-33.28-5.632h-563.2l-0.64-4.608c-1.664-10.88-3.2-21.12-4.864-30.72l-3.328-24.448a159.744 159.744 0 0 0-3.2-17.92c-1.024-3.456-2.304-7.936-3.968-12.8a42.88 42.88 0 0 0-7.168-12.8 40.704 40.704 0 0 0-13.696-10.752 55.296 55.296 0 0 0-23.808-4.352H123.264a33.92 33.92 0 0 0-26.368 8.32 30.976 30.976 0 0 0-9.344 23.04A83.328 83.328 0 0 0 89.6 203.648a51.2 51.2 0 0 0 6.656 16.64 47.744 47.744 0 0 0 12.8 12.8 27.136 27.136 0 0 0 17.152 5.12H192V243.2q19.584 101.376 35.072 183.936l33.92 179.2c2.432 12.8 3.968 20.48 4.608 23.936a218.88 218.88 0 0 0 6.656 25.6 107.776 107.776 0 0 0 11.264 24.576 55.04 55.04 0 0 0 16.768 17.536 43.008 43.008 0 0 0 24.448 6.528H755.2a26.752 26.752 0 0 0 23.552-8.96 46.336 46.336 0 0 0 6.912-25.6c0-12.032-3.456-28.032-33.792-28.032H334.976l-12.8-84.352h435.2a56.448 56.448 0 0 0 36.352-11.52 89.6 89.6 0 0 0 24.704-42.624c3.968-10.752 8.96-24.832 15.232-42.752l18.688-54.272c6.4-18.304 12.8-35.072 17.664-50.432s8.96-25.6 10.496-30.08a56.448 56.448 0 0 0 2.688-16.384 28.672 28.672 0 0 0-4.48-16.256z" fill="#FA8925" p-id="6277"></path><path d="M807.424 336.64l-59.648 157.952-435.584-0.896L281.6 334.976l525.824 1.664z" fill="#F2B547" p-id="6278"></path></svg>